<?xml version="1.0" standalone="no"?>
<!DOCTYPE svg PUBLIC "-//W3C//DTD SVG 20010904//EN"
 "http://www.w3.org/TR/2001/REC-SVG-20010904/DTD/svg10.dtd">
<svg version="1.0" xmlns="http://www.w3.org/2000/svg"
 width="32" height="32" viewBox="0 0 1024.000000 1024.000000"
 preserveAspectRatio="xMidYMid meet">

<g transform="translate(0.000000,1024.000000) scale(0.100000,-0.100000)"
fill="#000000" stroke="none">
<path d="M4845 8119 c-294 -36 -651 -125 -860 -214 -643 -275 -1033 -588
-1425 -1147 -35 -50 -73 -108 -83 -127 -11 -20 -34 -61 -52 -91 -183 -308
-304 -675 -361 -1100 -21 -154 -24 -509 -5 -620 48 -287 81 -433 136 -597 33
-99 117 -302 154 -373 67 -128 160 -286 176 -300 8 -7 15 -16 15 -21 0 -5 25
-42 55 -82 30 -39 69 -92 87 -117 18 -25 41 -54 50 -65 178 -207 177 -206 264
-286 67 -60 228 -192 295 -240 65 -46 176 -119 183 -119 2 0 43 -24 92 -53
280 -168 485 -251 835 -340 295 -75 431 -92 759 -92 228 0 287 3 420 23 179
28 203 33 405 97 226 71 323 110 515 206 266 134 410 230 605 400 118 103 322
310 420 427 106 127 297 418 373 569 107 212 207 532 262 843 6 36 16 88 21
115 26 133 20 518 -11 695 -5 30 -14 82 -19 115 -38 250 -169 615 -311 870
-153 275 -266 428 -478 654 -70 74 -135 145 -145 158 -40 50 -248 219 -376
305 -261 173 -684 359 -976 428 -315 74 -772 109 -1020 79z m468 -99 c611 -42
1194 -266 1682 -648 124 -97 362 -347 490 -514 325 -427 498 -828 592 -1378
27 -157 24 -565 -5 -747 -73 -453 -230 -845 -482 -1200 -36 -50 -83 -118 -105
-150 -54 -77 -396 -420 -515 -514 -179 -143 -409 -283 -621 -378 -239 -107
-525 -194 -795 -242 -152 -27 -488 -37 -660 -20 -227 23 -640 116 -804 181
-531 212 -909 473 -1224 845 -298 351 -472 653 -584 1010 -110 353 -155 697
-132 1013 23 318 56 485 151 761 120 349 306 660 581 973 273 310 454 452 853
671 257 141 583 246 945 306 241 40 388 47 633 31z"/>
<path d="M4905 7893 c-22 -2 -114 -15 -205 -29 -327 -50 -468 -90 -740 -209
-518 -227 -855 -504 -1184 -975 -248 -355 -377 -647 -449 -1015 -49 -246 -52
-279 -51 -565 l0 -275 41 -200 c79 -382 191 -656 391 -955 300 -447 592 -721
1024 -961 79 -44 235 -116 393 -182 140 -58 525 -146 734 -167 134 -13 418
-13 557 1 272 27 519 90 787 200 224 92 329 146 472 242 182 122 258 183 396
315 268 257 449 496 607 800 91 176 137 294 196 498 67 235 90 424 90 729 0
266 -18 420 -75 644 -52 201 -172 492 -286 689 -155 269 -443 610 -663 785
-141 113 -373 260 -532 339 -174 86 -481 194 -643 227 -243 49 -448 71 -638
69 -100 -1 -200 -3 -222 -5z m285 -244 l0 -52 -81 6 c-87 6 -101 14 -97 57 3
22 9 26 58 31 30 3 70 6 88 7 l32 2 0 -51z m-370 12 c18 -35 12 -70 -12 -76
-58 -13 -144 -23 -149 -17 -4 4 -9 22 -12 39 -8 39 6 49 85 62 77 13 76 13 88
-8z m696 2 c14 -5 30 -66 20 -81 -3 -5 -40 -4 -88 2 -89 12 -97 19 -83 73 6
25 7 25 72 18 37 -4 72 -9 79 -12z m284 -54 c51 -11 51 -11 48 -47 -4 -45 -22
-50 -102 -27 -42 12 -56 21 -56 35 0 52 19 59 110 39z m-1305 -31 c7 -18 11
-36 9 -40 -4 -6 -126 -48 -139 -48 -6 0 -17 81 -12 87 10 10 82 32 105 33 17
0 27 -9 37 -32z m-281 -95 l1 -38 -80 -32 c-44 -18 -88 -33 -97 -33 -21 0 -35
46 -21 69 13 21 176 92 187 81 5 -5 9 -26 10 -47z m1918 16 c46 -16 86 -33 90
-37 9 -10 -18 -72 -32 -72 -6 0 -47 14 -90 31 -69 26 -80 34 -80 54 0 29 10
55 20 55 5 0 46 -14 92 -31z m267 -124 c64 -22 150 -84 157 -111 11 -45 -38
-73 -66 -38 -8 8 -44 33 -82 55 -58 34 -68 44 -68 68 0 23 7 41 15 41 2 0 21
-7 44 -15z m-2507 -12 c37 -33 20 -53 -97 -111 -44 -22 -83 -38 -87 -35 -5 2
-8 19 -8 38 0 36 14 50 102 100 51 29 65 31 90 8z m-267 -163 c9 -10 15 -26
12 -34 -3 -7 -45 -47 -94 -87 -153 -128 -262 -232 -322 -309 -33 -41 -73 -88
-91 -105 -45 -42 -147 -185 -171 -241 -12 -26 -44 -81 -71 -123 -60 -92 -116
-206 -177 -366 -50 -130 -65 -144 -110 -108 l-23 19 45 114 c159 403 356 704
656 1000 142 140 287 257 322 260 3 0 14 -9 24 -20z m3107 -39 c82 -55 357
-320 381 -366 8 -16 39 -55 69 -85 60 -62 222 -301 291 -430 60 -112 167 -380
167 -419 0 -24 -6 -34 -24 -43 -14 -6 -31 -8 -39 -5 -8 3 -28 49 -46 102 -37
111 -111 282 -139 323 -11 15 -30 47 -42 72 -20 40 -77 128 -220 339 -61 91
-214 246 -356 361 -193 157 -187 151 -169 178 23 32 45 28 127 -27z m-1190
-156 c12 -16 9 -32 -8 -49 -13 -14 -65 -16 -409 -16 -216 0 -400 3 -409 6 -10
4 -16 18 -16 39 l0 33 418 -1 c264 -1 420 -6 424 -12z m-341 -566 c67 -53 71
-136 8 -198 -42 -43 -92 -50 -146 -21 -103 54 -108 171 -11 230 49 30 102 26
149 -11z m-923 -75 c28 -19 29 -64 3 -88 -25 -23 -49 -18 -73 15 -24 31 -18
61 15 77 29 14 29 14 55 -4z m1297 2 c24 -17 23 -75 -1 -93 -39 -28 -94 0 -94
47 0 48 55 75 95 46z m252 -12 c15 -23 15 -29 2 -52 -8 -14 -27 -30 -43 -35
-26 -9 -32 -7 -53 17 -28 33 -29 50 -3 76 29 29 76 26 97 -6z m451 6 c26 -24
28 -52 6 -74 -22 -23 -60 -20 -84 6 -24 26 -25 45 -3 70 21 24 54 23 81 -2z
m-2242 2 c6 -4 17 -18 24 -31 11 -22 10 -27 -15 -48 -33 -29 -51 -27 -78 9
-19 25 -19 28 -3 52 16 25 49 34 72 18z m473 -16 c19 -20 21 -28 12 -45 -13
-24 -58 -38 -79 -24 -25 15 -32 48 -16 72 20 28 55 27 83 -3z m235 5 c25 -28
17 -64 -18 -76 -24 -8 -31 -6 -47 14 -23 28 -24 45 -3 65 21 21 47 20 68 -3z
m1296 5 c18 -22 8 -57 -22 -79 -27 -20 -28 -20 -48 -2 -22 20 -27 64 -8 83 17
17 63 15 78 -2z m-1125 -820 c62 -16 85 -29 157 -86 l57 -44 -52 -47 c-51 -46
-53 -47 -72 -29 -41 36 -110 63 -175 67 -57 4 -72 1 -120 -24 -47 -25 -60 -38
-87 -92 -38 -72 -43 -139 -18 -212 35 -98 104 -148 206 -149 89 0 189 46 189
87 0 7 3 13 6 13 14 0 114 -96 114 -110 0 -16 -85 -82 -146 -113 -79 -41 -217
-38 -316 6 -133 60 -228 208 -228 357 0 59 32 180 59 223 39 64 146 137 228
156 57 14 142 12 198 -3z m-1925 -16 c116 -22 211 -94 262 -198 31 -62 33 -73
32 -167 0 -92 -3 -105 -32 -163 -41 -80 -88 -131 -149 -164 -75 -40 -140 -50
-323 -46 l-165 3 0 63 c1 34 2 202 3 372 l2 310 159 0 c87 0 182 -5 211 -10z
m3695 -232 l-11 -73 -41 3 c-54 4 -77 -9 -108 -62 -24 -41 -25 -49 -25 -210
l0 -167 -66 3 -65 3 1 274 c0 151 2 276 3 277 1 1 29 4 62 5 l60 3 -3 -45 -4
-44 45 44 c34 33 58 47 99 56 29 7 56 11 59 9 3 -2 0 -36 -6 -76z m-1129 37
c69 -34 111 -76 141 -142 22 -48 25 -65 21 -137 -5 -95 -30 -149 -94 -206 -58
-51 -109 -70 -190 -70 -118 0 -217 62 -276 173 -19 34 -23 58 -23 132 0 83 2
94 31 140 36 60 120 121 184 135 65 13 148 3 206 -25z m-1861 4 c62 -33 132
-107 150 -158 8 -24 15 -68 15 -96 l0 -52 -122 -6 c-66 -4 -156 -7 -200 -7
-43 0 -78 -3 -78 -7 0 -5 9 -23 20 -41 25 -41 73 -62 139 -62 42 0 56 5 85 30
19 17 37 26 40 21 3 -5 27 -23 52 -39 l45 -31 -57 -44 c-69 -55 -123 -71 -209
-65 -105 9 -175 61 -232 172 -69 134 -4 324 132 387 58 27 167 26 220 -2z
m322 -89 c24 -58 58 -140 74 -182 17 -43 34 -80 38 -83 7 -4 103 232 133 330
l13 40 73 3 c54 2 72 0 72 -10 0 -29 -32 -121 -86 -248 -31 -74 -72 -173 -90
-220 l-33 -85 -69 -3 c-47 -2 -72 1 -79 10 -10 12 -67 141 -168 383 -24 55
-50 117 -59 138 l-17 38 77 -3 77 -3 44 -105z m1864 100 l29 0 0 -159 c0 -184
4 -212 36 -246 43 -46 151 -25 186 37 9 16 14 80 16 201 l4 177 63 0 63 0 4
-272 c3 -150 3 -279 0 -285 -3 -9 -27 -13 -72 -13 l-69 0 6 36 c6 34 5 36 -15
25 -11 -6 -24 -16 -28 -22 -12 -21 -89 -49 -132 -49 -56 0 -103 23 -143 68
-60 68 -64 87 -64 311 l-1 203 45 -6 c24 -3 57 -6 72 -6z m1189 -26 c41 -19
76 -37 78 -38 1 -2 -17 -24 -40 -49 -42 -47 -42 -47 -62 -28 -29 27 -104 46
-149 37 -28 -5 -38 -13 -43 -32 -9 -35 16 -58 84 -79 161 -50 202 -89 202
-190 0 -97 -36 -139 -142 -165 -81 -21 -169 10 -300 102 l-23 16 27 11 c15 5
32 19 38 31 14 26 22 25 89 -7 31 -14 79 -28 108 -31 49 -4 53 -3 65 23 16 36
2 57 -53 73 -178 53 -239 105 -239 203 0 92 90 159 215 159 60 0 81 -5 145
-36z m507 6 c86 -49 126 -120 139 -244 l6 -63 -198 -2 c-109 -1 -200 -3 -202
-5 -8 -9 24 -60 51 -80 18 -14 47 -21 91 -24 59 -4 65 -2 98 27 32 28 37 29
49 15 7 -8 30 -24 51 -35 22 -11 38 -25 35 -32 -6 -19 -107 -86 -146 -97 -146
-40 -295 29 -359 168 -21 46 -24 65 -20 126 12 176 112 275 278 276 65 0 82
-4 127 -30z m68 -917 c-21 -111 -159 -404 -280 -593 -137 -214 -196 -283 -225
-265 -14 8 -13 61 2 88 18 34 108 159 139 192 37 40 177 321 234 470 62 160
66 167 106 153 28 -10 30 -13 24 -45z m-4970 30 c4 -10 22 -61 40 -113 67
-189 133 -323 273 -545 32 -51 160 -207 285 -347 53 -61 97 -115 97 -121 -1
-30 -17 -40 -47 -28 -68 29 -263 242 -384 421 -181 268 -262 423 -325 624
l-27 89 22 19 c29 23 57 23 66 1z m2516 -367 c76 -52 88 -133 28 -194 -60 -61
-143 -60 -206 3 -106 106 52 276 178 191z m-463 -72 c40 -28 24 -94 -23 -94
-50 0 -79 56 -46 89 25 25 39 26 69 5z m860 -33 c4 -28 -23 -71 -46 -71 -28 0
-62 29 -62 54 0 23 22 49 50 59 22 7 54 -17 58 -42z m227 24 c14 -13 25 -29
25 -35 0 -17 -47 -60 -65 -60 -18 0 -65 43 -65 60 0 17 47 60 65 60 9 0 27
-11 40 -25z m226 4 c26 -26 21 -57 -12 -82 -33 -24 -65 -11 -75 30 -6 21 -1
31 20 50 33 28 40 29 67 2z m227 5 c24 -17 30 -62 10 -82 -19 -19 -59 -14 -85
10 -30 28 -29 42 3 67 32 25 43 26 72 5z m-2212 -20 c16 -24 16 -27 -3 -52
-25 -34 -56 -39 -82 -13 -26 26 -26 46 -1 71 28 28 66 26 86 -6z m232 14 c18
-18 14 -49 -10 -75 -25 -27 -45 -29 -70 -6 -22 20 -23 51 -1 75 18 20 63 24
81 6z m214 -5 c26 -23 23 -59 -7 -79 -30 -19 -48 -14 -71 21 -36 54 29 103 78
58z m2618 -453 c43 -27 -96 -181 -368 -408 -48 -39 -95 -75 -106 -78 -22 -7
-36 11 -36 47 0 22 19 40 113 109 75 56 132 107 172 157 75 92 171 183 193
183 9 0 24 -5 32 -10z m-1593 -152 c7 -6 13 -23 13 -39 0 -24 -5 -29 -35 -35
-20 -3 -93 -2 -163 4 -85 7 -210 7 -372 1 -134 -5 -252 -6 -262 -3 -21 6 -24
42 -5 67 16 22 101 25 497 20 197 -3 320 -9 327 -15z m-1995 -187 c57 -53 67
-72 48 -101 -8 -13 -15 -12 -55 10 -76 41 -135 98 -135 129 0 67 39 56 142
-38z m187 -136 c54 -19 126 -70 139 -100 8 -17 7 -28 -3 -41 -12 -17 -14 -17
-56 1 -66 30 -129 91 -129 126 0 34 -4 33 49 14z m2799 -66 c2 -19 -4 -33 -23
-47 -25 -20 -124 -62 -145 -62 -6 0 -10 16 -10 35 0 34 3 37 73 71 82 39 101
40 105 3z m-2378 -143 l85 -34 3 -42 3 -43 -36 6 c-55 9 -209 89 -213 110 -11
58 19 58 158 3z m2086 9 c12 -48 -6 -63 -133 -111 -70 -27 -74 -25 -77 37 -1
30 1 32 89 64 50 19 96 34 102 34 7 1 15 -10 19 -24z m-1743 -126 c20 -9 27
-19 27 -41 0 -15 -1 -31 -2 -35 -4 -10 -60 -5 -110 8 -36 9 -38 12 -38 51 l0
41 48 -6 c26 -3 60 -11 75 -18z m1390 -16 c7 -36 3 -39 -68 -57 -72 -19 -95
-20 -95 -3 0 6 -3 22 -6 33 -5 19 1 23 53 37 91 24 110 22 116 -10z m-1030
-52 c7 -7 -8 -91 -16 -91 -1 0 -40 7 -87 15 -47 8 -86 15 -87 15 -2 0 -3 19
-3 41 l0 42 93 -7 c50 -4 96 -11 100 -15z m713 -8 c3 -16 7 -34 10 -41 5 -17
-32 -30 -116 -40 -77 -9 -80 -7 -80 52 l0 33 78 10 c42 5 83 11 89 11 7 1 15
-10 19 -25z m-360 -49 c3 -19 2 -40 -3 -45 -6 -6 -48 -9 -94 -7 l-84 3 -3 28
c-6 53 0 57 92 57 l85 0 7 -36z"/>
<path d="M2758 5160 l3 -240 76 0 c182 0 276 67 290 205 9 83 -12 151 -63 201
-49 50 -80 60 -214 68 l-95 6 3 -240z"/>
<path d="M5353 5211 c-58 -27 -77 -60 -77 -135 1 -73 21 -119 67 -146 71 -44
131 -38 188 19 60 60 70 144 25 213 -41 62 -130 83 -203 49z"/>
<path d="M3540 5229 c-35 -14 -90 -69 -90 -90 0 -24 12 -27 154 -28 l128 -2
-7 28 c-7 29 -38 69 -65 83 -27 14 -95 19 -120 9z"/>
<path d="M7366 5209 c-38 -30 -62 -79 -44 -90 22 -15 268 -11 268 4 0 17 -39
79 -59 94 -9 7 -44 13 -77 13 -47 0 -67 -5 -88 -21z"/>
</g>
</svg>
